<svg width="100" height="90" viewBox="0 0 100 90" fill="none" xmlns="http://www.w3.org/2000/svg">
<path fill-rule="evenodd" clip-rule="evenodd" d="M53.9574 75.7477C58.8103 72.419 62.8394 75.3418 66.5286 78.6471C61.7655 79.936 56.7217 80.5207 53.9574 75.7477Z" fill="url(#paint0_linear_1755_1203)" stroke="black" stroke-opacity="0.1"/>
<path fill-rule="evenodd" clip-rule="evenodd" d="M55.1239 72.8827C55.3392 67.0174 60.0984 65.542 64.9626 64.5661C63.158 69.142 60.6182 73.5222 55.1239 72.8827Z" fill="url(#paint1_linear_1755_1203)" stroke="black" stroke-opacity="0.1"/>
<path fill-rule="evenodd" clip-rule="evenodd" d="M62.6115 73.1048C67.1648 69.3795 71.4273 71.9528 75.3845 74.9356C70.7479 76.6209 65.7715 77.628 62.6115 73.1048Z" fill="url(#paint2_linear_1755_1203)" stroke="black" stroke-opacity="0.1"/>
<path fill-rule="evenodd" clip-rule="evenodd" d="M66.8338 70.3235C63.9965 65.1796 67.3207 61.4802 70.9929 58.1554C71.8018 63.0053 71.879 68.0634 66.8338 70.3235Z" fill="url(#paint3_linear_1755_1203)" stroke="black" stroke-opacity="0.1"/>
<path fill-rule="evenodd" clip-rule="evenodd" d="M70.5191 70.209C73.8686 65.3811 78.6772 66.6881 83.3047 68.4731C79.3116 71.3628 74.8047 73.6936 70.5191 70.2096V70.209Z" fill="url(#paint4_linear_1755_1203)" stroke="black" stroke-opacity="0.1"/>
<path fill-rule="evenodd" clip-rule="evenodd" d="M75.2503 65.9023C70.9157 61.9267 72.8836 57.3653 75.3013 53.0486C77.6191 57.389 79.3098 62.1587 75.2503 65.9023Z" fill="url(#paint5_linear_1755_1203)" stroke="black" stroke-opacity="0.1"/>
<path fill-rule="evenodd" clip-rule="evenodd" d="M77.553 65.4166C79.9198 60.0417 84.89 60.414 89.7737 61.2895C86.4053 64.883 82.4258 68.0251 77.553 65.4166Z" fill="url(#paint6_linear_1755_1203)" stroke="black" stroke-opacity="0.1"/>
<path fill-rule="evenodd" clip-rule="evenodd" d="M81.5023 60.2203C76.5026 57.1139 77.5869 52.2686 79.159 47.5801C82.2448 51.4175 84.7944 55.7915 81.5023 60.2203V60.2203Z" fill="url(#paint7_linear_1755_1203)" stroke="black" stroke-opacity="0.1"/>
<path fill-rule="evenodd" clip-rule="evenodd" d="M83.2475 59.4932C84.5512 53.7695 89.5024 53.1988 94.4641 53.1385C91.8387 57.3016 88.5275 61.1367 83.2475 59.4932Z" fill="url(#paint8_linear_1755_1203)" stroke="black" stroke-opacity="0.1"/>
<path fill-rule="evenodd" clip-rule="evenodd" d="M84.7323 51.0818C79.4085 48.5668 79.9288 43.6292 80.9515 38.7926C84.4581 42.252 87.4937 46.3067 84.7323 51.0818Z" fill="url(#paint9_linear_1755_1203)" stroke="black" stroke-opacity="0.1"/>
<path fill-rule="evenodd" clip-rule="evenodd" d="M85.6196 52.7187C86.2316 46.8812 91.0799 45.729 96 45.0821C93.8894 49.5264 91.0589 53.7258 85.6196 52.7187V52.7187Z" fill="url(#paint10_linear_1755_1203)" stroke="black" stroke-opacity="0.1"/>
<path fill-rule="evenodd" clip-rule="evenodd" d="M86.9702 41.5134C81.2167 40.2467 80.6163 35.3178 80.5281 30.3754C84.7222 32.9673 88.5907 36.2439 86.9702 41.5134V41.5134Z" fill="url(#paint11_linear_1755_1203)" stroke="black" stroke-opacity="0.1"/>
<path fill-rule="evenodd" clip-rule="evenodd" d="M88.0963 45.8181C86.4312 40.1881 90.474 37.2846 94.7761 34.8206C94.5231 39.7305 93.5106 44.6871 88.0963 45.8181V45.8181Z" fill="url(#paint12_linear_1755_1203)" stroke="black" stroke-opacity="0.1"/>
<path fill-rule="evenodd" clip-rule="evenodd" d="M84.7072 30.4542C78.8221 30.7478 76.9349 26.1526 75.5382 21.4096C80.2709 22.8048 84.8715 24.9462 84.7072 30.4542Z" fill="url(#paint13_linear_1755_1203)" stroke="black" stroke-opacity="0.1"/>
<path fill-rule="evenodd" clip-rule="evenodd" d="M88.496 36.7719C84.9594 32.0775 87.7273 27.9486 90.8926 24.1423C92.3794 28.8302 93.1712 33.8261 88.496 36.7719V36.7719Z" fill="url(#paint14_linear_1755_1203)" stroke="black" stroke-opacity="0.1"/>
<path fill-rule="evenodd" clip-rule="evenodd" d="M82.1327 22.1034C76.2505 21.7648 74.8698 16.9946 73.9921 12.1291C78.5474 14.0228 82.8904 16.6445 82.1327 22.1034V22.1034Z" fill="url(#paint15_linear_1755_1203)" stroke="black" stroke-opacity="0.1"/>
<path fill-rule="evenodd" clip-rule="evenodd" d="M85.8875 27.1679C81.4676 23.2873 83.3362 18.6844 85.6596 14.3161C88.0711 18.6065 89.8649 23.3383 85.8875 27.1679Z" fill="url(#paint16_linear_1755_1203)" stroke="black" stroke-opacity="0.1"/>
<path fill-rule="evenodd" clip-rule="evenodd" d="M48.0426 75.8325C43.1897 72.5038 39.1606 75.4266 35.4714 78.7319C40.2345 80.0208 45.2783 80.6055 48.0426 75.8325Z" fill="url(#paint17_linear_1755_1203)" stroke="black" stroke-opacity="0.1"/>
<path fill-rule="evenodd" clip-rule="evenodd" d="M46.8761 72.9675C46.6608 67.1022 41.9016 65.6267 37.0374 64.6508C38.842 69.2267 41.3818 73.6069 46.8761 72.9675Z" fill="url(#paint18_linear_1755_1203)" stroke="black" stroke-opacity="0.1"/>
<path fill-rule="evenodd" clip-rule="evenodd" d="M39.3885 73.1896C34.8352 69.4643 30.5727 72.0375 26.6155 75.0204C31.2521 76.7057 36.2285 77.7128 39.3885 73.1896Z" fill="url(#paint19_linear_1755_1203)" stroke="black" stroke-opacity="0.1"/>
<path fill-rule="evenodd" clip-rule="evenodd" d="M35.1662 70.4082C38.0035 65.2643 34.6793 61.565 31.0071 58.2402C30.1982 63.0901 30.121 68.1481 35.1662 70.4082Z" fill="url(#paint20_linear_1755_1203)" stroke="black" stroke-opacity="0.1"/>
<path fill-rule="evenodd" clip-rule="evenodd" d="M31.4809 70.2938C28.1314 65.4658 23.3228 66.7728 18.6953 68.5579C22.6884 71.4476 27.1953 73.7784 31.4809 70.2944V70.2938Z" fill="url(#paint21_linear_1755_1203)" stroke="black" stroke-opacity="0.1"/>
<path fill-rule="evenodd" clip-rule="evenodd" d="M26.7497 65.9871C31.0843 62.0115 29.1164 57.45 26.6987 53.1333C24.3809 57.4738 22.6902 62.2435 26.7497 65.9871Z" fill="url(#paint22_linear_1755_1203)" stroke="black" stroke-opacity="0.1"/>
<path fill-rule="evenodd" clip-rule="evenodd" d="M24.447 65.5014C22.0802 60.1265 17.11 60.4988 12.2263 61.3743C15.5947 64.9677 19.5742 68.1099 24.447 65.5014Z" fill="url(#paint23_linear_1755_1203)" stroke="black" stroke-opacity="0.1"/>
<path fill-rule="evenodd" clip-rule="evenodd" d="M20.4977 60.3051C25.4974 57.1987 24.4131 52.3534 22.841 47.6649C19.7552 51.5022 17.2056 55.8763 20.4977 60.3051V60.3051Z" fill="url(#paint24_linear_1755_1203)" stroke="black" stroke-opacity="0.1"/>
<path fill-rule="evenodd" clip-rule="evenodd" d="M18.7525 59.578C17.4488 53.8543 12.4976 53.2836 7.53589 53.2233C10.1613 57.3864 13.4725 61.2214 18.7525 59.578Z" fill="url(#paint25_linear_1755_1203)" stroke="black" stroke-opacity="0.1"/>
<path fill-rule="evenodd" clip-rule="evenodd" d="M17.2677 51.1666C22.5915 48.6516 22.0712 43.714 21.0485 38.8773C17.5419 42.3368 14.5063 46.3915 17.2677 51.1666Z" fill="url(#paint26_linear_1755_1203)" stroke="black" stroke-opacity="0.1"/>
<path fill-rule="evenodd" clip-rule="evenodd" d="M16.3804 52.8035C15.7683 46.9659 10.9201 45.8138 6 45.1669C8.11055 49.6111 10.9411 53.8106 16.3804 52.8035V52.8035Z" fill="url(#paint27_linear_1755_1203)" stroke="black" stroke-opacity="0.1"/>
<path fill-rule="evenodd" clip-rule="evenodd" d="M15.0298 41.5981C20.7833 40.3315 21.3837 35.4026 21.4719 30.4601C17.2778 33.0521 13.4093 36.3287 15.0298 41.5981V41.5981Z" fill="url(#paint28_linear_1755_1203)" stroke="black" stroke-opacity="0.1"/>
<path fill-rule="evenodd" clip-rule="evenodd" d="M13.9037 45.9029C15.5688 40.2728 11.526 37.3693 7.22388 34.9053C7.47694 39.8152 8.4894 44.7719 13.9037 45.9029V45.9029Z" fill="url(#paint29_linear_1755_1203)" stroke="black" stroke-opacity="0.1"/>
<path fill-rule="evenodd" clip-rule="evenodd" d="M17.2928 30.539C23.1779 30.8326 25.0651 26.2374 26.4618 21.4944C21.7291 22.8896 17.1285 25.031 17.2928 30.539Z" fill="url(#paint30_linear_1755_1203)" stroke="black" stroke-opacity="0.1"/>
<path fill-rule="evenodd" clip-rule="evenodd" d="M13.504 36.8567C17.0406 32.1622 14.2727 28.0334 11.1074 24.2271C9.62062 28.915 8.82878 33.9109 13.504 36.8567V36.8567Z" fill="url(#paint31_linear_1755_1203)" stroke="black" stroke-opacity="0.1"/>
<path fill-rule="evenodd" clip-rule="evenodd" d="M19.8673 22.1882C25.7495 21.8496 27.1302 17.0793 28.0079 12.2139C23.4526 14.1075 19.1096 16.7293 19.8673 22.1882V22.1882Z" fill="url(#paint32_linear_1755_1203)" stroke="black" stroke-opacity="0.1"/>
<path fill-rule="evenodd" clip-rule="evenodd" d="M16.1125 27.2527C20.5324 23.3721 18.6638 18.7691 16.3404 14.4009C13.9289 18.6912 12.1351 23.423 16.1125 27.2527Z" fill="url(#paint33_linear_1755_1203)" stroke="black" stroke-opacity="0.1"/>
<path d="M52.6904 74.6497C52.6904 75.1006 52.5106 75.533 52.1905 75.8519C51.8704 76.1707 51.4362 76.3498 50.9835 76.3498C50.5308 76.3498 50.0967 76.1707 49.7766 75.8519C49.4564 75.533 49.2766 75.1006 49.2766 74.6497C49.2766 74.1988 49.4564 73.7663 49.7766 73.4475C50.0967 73.1286 50.5308 72.9495 50.9835 72.9495C51.4362 72.9495 51.8704 73.1286 52.1905 73.4475C52.5106 73.7663 52.6904 74.1988 52.6904 74.6497V74.6497Z" fill="url(#paint34_linear_1755_1203)" stroke="black" stroke-opacity="0.1" stroke-width="0.999988" stroke-linecap="round"/>
<g clip-path="url(#clip0_1755_1203)">
<mask id="path-36-inside-1_1755_1203" fill="white">
<path fill-rule="evenodd" clip-rule="evenodd" d="M67.2455 55.9794C66.8433 54.8044 66.476 53.7258 66.1449 52.7446C65.7277 51.5081 65.3669 50.4256 65.0627 49.497C64.5521 47.98 64.0754 46.4564 63.6317 44.9284C63.1802 43.3731 62.7634 41.8116 62.3812 40.2449C61.9812 38.6188 61.6321 37.1845 61.3347 35.939C60.8868 34.064 60.5545 32.62 60.3385 31.6058C60.2198 31.0704 60.1169 30.5878 60.0277 30.159C59.9055 29.5716 59.8104 29.0844 59.7439 28.6994C59.6569 28.1913 59.5785 27.6874 59.5093 27.1869C59.4385 26.6735 59.3771 26.1634 59.3251 25.658C59.0158 24.8123 58.7268 23.9789 58.4591 23.1584C58.1752 22.2883 57.915 21.4338 57.6791 20.5968C57.6772 20.6854 57.6695 20.7736 57.6672 20.8632C57.6653 20.9518 57.6624 21.0418 57.6576 21.1313C57.657 21.166 57.6569 21.2008 57.6557 21.2353C57.6553 21.2699 57.6551 21.3047 57.6538 21.3394C57.6531 21.3956 57.6531 21.4505 57.6519 21.5072C57.6515 21.5634 57.6519 21.6202 57.6519 21.6769C57.6519 23.1679 57.7758 24.9074 58.0241 26.895C58.2181 28.4478 58.4881 30.1531 58.8336 32.0091C59.1508 33.6817 59.5174 35.4267 59.9342 37.2472C60.3139 38.9054 60.7347 40.626 61.197 42.4069C61.5436 43.6605 61.8872 44.9084 62.2264 46.1508C62.5692 47.4068 62.9083 48.6574 63.2434 49.902C62.4323 49.6385 61.7059 49.4056 61.0644 49.205C60.1719 48.926 59.4433 48.709 58.8791 48.5519C57.852 48.2347 56.9694 47.9089 56.2307 47.5739C55.0315 47.0302 54.2122 46.4622 53.7728 45.8716C53.7134 45.795 53.6594 45.7167 53.6107 45.6381C53.5571 45.5521 53.5099 45.4655 53.4695 45.3772C53.1922 44.7733 52.9375 43.7756 52.7054 42.385C52.5569 41.4952 52.4178 40.4442 52.2878 39.2323C52.1425 37.879 52.0283 36.6462 51.9463 35.5322C51.7854 32.9326 51.7419 34.6384 51.773 31.9452C51.7797 31.4749 51.8531 31.5429 52.1968 30.3232C52.4576 29.3976 52.6765 28.5639 52.9436 27.8236C53.2351 27.0158 53.5837 26.3182 54.1057 25.7309V24.9208V24.1107C53.4881 23.1935 53.067 22.2337 52.7483 21.2317C52.4102 20.1683 52.188 19.0571 51.9695 17.8983L51.0372 10L50.1073 17.8983C49.8889 19.0571 49.6667 20.1683 49.3286 21.2317C49.0099 22.2337 48.5887 23.1935 47.9712 24.1107V24.9208V25.7309C48.4931 26.3182 48.8417 27.0158 49.1333 27.8236C49.4004 28.5639 49.6192 29.3976 49.8801 30.3232C50.2238 31.5429 50.2969 31.4749 50.3039 31.9452C50.3105 34.3062 50.302 33.1751 50.1306 35.5322C50.0486 36.6462 49.9342 37.879 49.7891 39.2323C49.6591 40.4442 49.52 41.4952 49.3715 42.385C49.1395 43.7756 48.8846 44.7733 48.6074 45.3772C48.567 45.4654 48.5207 45.5524 48.4674 45.6381C48.4187 45.7164 48.3645 45.7933 48.3053 45.8698C47.8661 46.4606 47.0458 47.0281 45.8461 47.5721C45.1073 47.9071 44.225 48.2346 43.1977 48.5519C42.6335 48.709 41.9049 48.926 41.0125 49.205C40.371 49.4056 39.6445 49.6384 38.8333 49.902C39.1686 48.6573 39.5076 47.4068 39.8505 46.1508C40.1896 44.9084 40.5332 43.6605 40.8798 42.4069C41.3421 40.626 41.7629 38.9054 42.1426 37.2472C42.5594 35.4266 42.926 33.6816 43.2432 32.009C43.5888 30.1531 43.8587 28.4478 44.0527 26.895C44.301 24.9073 44.4249 23.1679 44.4249 21.6768C44.4249 21.6201 44.4251 21.5633 44.4249 21.5072C44.4244 21.4506 44.4241 21.3957 44.423 21.3393C44.4225 21.3047 44.4223 21.2699 44.4211 21.2352C44.4206 21.2006 44.4203 21.1657 44.4192 21.1313C44.4173 21.0416 44.4144 20.9518 44.4096 20.8631C44.4077 20.7735 44.403 20.6854 44.3977 20.5967C44.1619 21.4337 43.9004 22.2883 43.6165 23.1584C43.3488 23.9789 43.061 24.8123 42.7518 25.6579C42.6995 26.1634 42.6372 26.6735 42.5663 27.1869C42.4971 27.6874 42.4199 28.1913 42.3329 28.6994C42.2664 29.0845 42.1713 29.5714 42.0492 30.159C41.9601 30.5879 41.8569 31.0702 41.7384 31.6058C41.5223 32.6199 41.19 34.0643 40.7422 35.939C40.4447 37.1843 40.0956 38.6189 39.6956 40.2449C39.3134 41.8116 38.8968 43.3731 38.4451 44.9284C38.0015 46.4564 37.5248 47.98 37.0141 49.4969C36.7099 50.4256 36.3491 51.5081 35.9319 52.7446C35.6008 53.7258 35.2336 54.8044 34.8313 55.9794C35.2174 55.7802 35.6068 55.5857 35.9995 55.3956C36.388 55.2075 36.7801 55.0223 37.175 54.8428C38.3182 54.3176 39.4429 53.8454 40.5493 53.4233C41.7094 52.9807 42.8494 52.5939 43.9691 52.2647C44.1769 52.2036 44.3818 52.1442 44.5845 52.0877C44.7925 52.0298 44.9979 51.9755 45.2011 51.9217C46.2083 51.6443 47.1359 51.4286 47.9822 51.2741C48.5689 51.1669 49.1079 51.0958 49.6171 51.0478C49.5166 53.5212 49.3742 57.8175 49.2007 67.6599H52.8747C52.7012 57.8175 52.5592 53.5212 52.4583 51.0478C52.9679 51.0959 53.5073 51.1667 54.0945 51.2741C54.9408 51.4286 55.8671 51.6444 56.8743 51.9217C57.0775 51.9755 57.2841 52.0298 57.4922 52.0877C57.6949 52.1442 57.8998 52.2036 58.1076 52.2647C59.2273 52.5939 60.3672 52.9807 61.5273 53.4233C62.6338 53.8454 63.7585 54.3176 64.9017 54.8428C65.2965 55.0223 65.6887 55.2075 66.0772 55.3956C66.4699 55.5857 66.8595 55.7802 67.2455 55.9794Z"/>
</mask>
<path fill-rule="evenodd" clip-rule="evenodd" d="M67.2455 55.9794C66.8433 54.8044 66.476 53.7258 66.1449 52.7446C65.7277 51.5081 65.3669 50.4256 65.0627 49.497C64.5521 47.98 64.0754 46.4564 63.6317 44.9284C63.1802 43.3731 62.7634 41.8116 62.3812 40.2449C61.9812 38.6188 61.6321 37.1845 61.3347 35.939C60.8868 34.064 60.5545 32.62 60.3385 31.6058C60.2198 31.0704 60.1169 30.5878 60.0277 30.159C59.9055 29.5716 59.8104 29.0844 59.7439 28.6994C59.6569 28.1913 59.5785 27.6874 59.5093 27.1869C59.4385 26.6735 59.3771 26.1634 59.3251 25.658C59.0158 24.8123 58.7268 23.9789 58.4591 23.1584C58.1752 22.2883 57.915 21.4338 57.6791 20.5968C57.6772 20.6854 57.6695 20.7736 57.6672 20.8632C57.6653 20.9518 57.6624 21.0418 57.6576 21.1313C57.657 21.166 57.6569 21.2008 57.6557 21.2353C57.6553 21.2699 57.6551 21.3047 57.6538 21.3394C57.6531 21.3956 57.6531 21.4505 57.6519 21.5072C57.6515 21.5634 57.6519 21.6202 57.6519 21.6769C57.6519 23.1679 57.7758 24.9074 58.0241 26.895C58.2181 28.4478 58.4881 30.1531 58.8336 32.0091C59.1508 33.6817 59.5174 35.4267 59.9342 37.2472C60.3139 38.9054 60.7347 40.626 61.197 42.4069C61.5436 43.6605 61.8872 44.9084 62.2264 46.1508C62.5692 47.4068 62.9083 48.6574 63.2434 49.902C62.4323 49.6385 61.7059 49.4056 61.0644 49.205C60.1719 48.926 59.4433 48.709 58.8791 48.5519C57.852 48.2347 56.9694 47.9089 56.2307 47.5739C55.0315 47.0302 54.2122 46.4622 53.7728 45.8716C53.7134 45.795 53.6594 45.7167 53.6107 45.6381C53.5571 45.5521 53.5099 45.4655 53.4695 45.3772C53.1922 44.7733 52.9375 43.7756 52.7054 42.385C52.5569 41.4952 52.4178 40.4442 52.2878 39.2323C52.1425 37.879 52.0283 36.6462 51.9463 35.5322C51.7854 32.9326 51.7419 34.6384 51.773 31.9452C51.7797 31.4749 51.8531 31.5429 52.1968 30.3232C52.4576 29.3976 52.6765 28.5639 52.9436 27.8236C53.2351 27.0158 53.5837 26.3182 54.1057 25.7309V24.9208V24.1107C53.4881 23.1935 53.067 22.2337 52.7483 21.2317C52.4102 20.1683 52.188 19.0571 51.9695 17.8983L51.0372 10L50.1073 17.8983C49.8889 19.0571 49.6667 20.1683 49.3286 21.2317C49.0099 22.2337 48.5887 23.1935 47.9712 24.1107V24.9208V25.7309C48.4931 26.3182 48.8417 27.0158 49.1333 27.8236C49.4004 28.5639 49.6192 29.3976 49.8801 30.3232C50.2238 31.5429 50.2969 31.4749 50.3039 31.9452C50.3105 34.3062 50.302 33.1751 50.1306 35.5322C50.0486 36.6462 49.9342 37.879 49.7891 39.2323C49.6591 40.4442 49.52 41.4952 49.3715 42.385C49.1395 43.7756 48.8846 44.7733 48.6074 45.3772C48.567 45.4654 48.5207 45.5524 48.4674 45.6381C48.4187 45.7164 48.3645 45.7933 48.3053 45.8698C47.8661 46.4606 47.0458 47.0281 45.8461 47.5721C45.1073 47.9071 44.225 48.2346 43.1977 48.5519C42.6335 48.709 41.9049 48.926 41.0125 49.205C40.371 49.4056 39.6445 49.6384 38.8333 49.902C39.1686 48.6573 39.5076 47.4068 39.8505 46.1508C40.1896 44.9084 40.5332 43.6605 40.8798 42.4069C41.3421 40.626 41.7629 38.9054 42.1426 37.2472C42.5594 35.4266 42.926 33.6816 43.2432 32.009C43.5888 30.1531 43.8587 28.4478 44.0527 26.895C44.301 24.9073 44.4249 23.1679 44.4249 21.6768C44.4249 21.6201 44.4251 21.5633 44.4249 21.5072C44.4244 21.4506 44.4241 21.3957 44.423 21.3393C44.4225 21.3047 44.4223 21.2699 44.4211 21.2352C44.4206 21.2006 44.4203 21.1657 44.4192 21.1313C44.4173 21.0416 44.4144 20.9518 44.4096 20.8631C44.4077 20.7735 44.403 20.6854 44.3977 20.5967C44.1619 21.4337 43.9004 22.2883 43.6165 23.1584C43.3488 23.9789 43.061 24.8123 42.7518 25.6579C42.6995 26.1634 42.6372 26.6735 42.5663 27.1869C42.4971 27.6874 42.4199 28.1913 42.3329 28.6994C42.2664 29.0845 42.1713 29.5714 42.0492 30.159C41.9601 30.5879 41.8569 31.0702 41.7384 31.6058C41.5223 32.6199 41.19 34.0643 40.7422 35.939C40.4447 37.1843 40.0956 38.6189 39.6956 40.2449C39.3134 41.8116 38.8968 43.3731 38.4451 44.9284C38.0015 46.4564 37.5248 47.98 37.0141 49.4969C36.7099 50.4256 36.3491 51.5081 35.9319 52.7446C35.6008 53.7258 35.2336 54.8044 34.8313 55.9794C35.2174 55.7802 35.6068 55.5857 35.9995 55.3956C36.388 55.2075 36.7801 55.0223 37.175 54.8428C38.3182 54.3176 39.4429 53.8454 40.5493 53.4233C41.7094 52.9807 42.8494 52.5939 43.9691 52.2647C44.1769 52.2036 44.3818 52.1442 44.5845 52.0877C44.7925 52.0298 44.9979 51.9755 45.2011 51.9217C46.2083 51.6443 47.1359 51.4286 47.9822 51.2741C48.5689 51.1669 49.1079 51.0958 49.6171 51.0478C49.5166 53.5212 49.3742 57.8175 49.2007 67.6599H52.8747C52.7012 57.8175 52.5592 53.5212 52.4583 51.0478C52.9679 51.0959 53.5073 51.1667 54.0945 51.2741C54.9408 51.4286 55.8671 51.6444 56.8743 51.9217C57.0775 51.9755 57.2841 52.0298 57.4922 52.0877C57.6949 52.1442 57.8998 52.2036 58.1076 52.2647C59.2273 52.5939 60.3672 52.9807 61.5273 53.4233C62.6338 53.8454 63.7585 54.3176 64.9017 54.8428C65.2965 55.0223 65.6887 55.2075 66.0772 55.3956C66.4699 55.5857 66.8595 55.7802 67.2455 55.9794Z" fill="url(#paint35_linear_1755_1203)" fill-opacity="0.901961" stroke="black" stroke-opacity="0.1" stroke-width="2" mask="url(#path-36-inside-1_1755_1203)"/>
</g>
<rect y="86" width="100" height="4" rx="2" fill="url(#paint36_radial_1755_1203)"/>
<rect width="100" height="4" rx="2" fill="url(#paint37_radial_1755_1203)"/>
<defs>
<linearGradient id="paint0_linear_1755_1203" x1="60.243" y1="74.2794" x2="60.243" y2="79.5581" gradientUnits="userSpaceOnUse">
<stop stop-color="#F3E89E"/>
<stop offset="1" stop-color="#B39972" stop-opacity="0.4"/>
</linearGradient>
<linearGradient id="paint1_linear_1755_1203" x1="60.0433" y1="64.5661" x2="60.0433" y2="72.9451" gradientUnits="userSpaceOnUse">
<stop stop-color="#F3E89E"/>
<stop offset="1" stop-color="#B39972" stop-opacity="0.4"/>
</linearGradient>
<linearGradient id="paint2_linear_1755_1203" x1="68.998" y1="71.2552" x2="68.998" y2="76.3588" gradientUnits="userSpaceOnUse">
<stop stop-color="#F3E89E"/>
<stop offset="1" stop-color="#B39972" stop-opacity="0.4"/>
</linearGradient>
<linearGradient id="paint3_linear_1755_1203" x1="68.5865" y1="58.1554" x2="68.5865" y2="70.3235" gradientUnits="userSpaceOnUse">
<stop stop-color="#F3E89E"/>
<stop offset="1" stop-color="#B39972" stop-opacity="0.4"/>
</linearGradient>
<linearGradient id="paint4_linear_1755_1203" x1="76.9119" y1="66.8586" x2="76.9119" y2="71.9569" gradientUnits="userSpaceOnUse">
<stop stop-color="#F3E89E"/>
<stop offset="1" stop-color="#B39972" stop-opacity="0.4"/>
</linearGradient>
<linearGradient id="paint5_linear_1755_1203" x1="75.1974" y1="53.0486" x2="75.1974" y2="65.9023" gradientUnits="userSpaceOnUse">
<stop stop-color="#F3E89E"/>
<stop offset="1" stop-color="#B39972" stop-opacity="0.4"/>
</linearGradient>
<linearGradient id="paint6_linear_1755_1203" x1="83.6633" y1="60.7753" x2="83.6633" y2="66.3782" gradientUnits="userSpaceOnUse">
<stop stop-color="#F3E89E"/>
<stop offset="1" stop-color="#B39972" stop-opacity="0.4"/>
</linearGradient>
<linearGradient id="paint7_linear_1755_1203" x1="80.4433" y1="47.5801" x2="80.4433" y2="60.2203" gradientUnits="userSpaceOnUse">
<stop stop-color="#F3E89E"/>
<stop offset="1" stop-color="#B39972" stop-opacity="0.4"/>
</linearGradient>
<linearGradient id="paint8_linear_1755_1203" x1="88.8558" y1="53.1385" x2="88.8558" y2="59.8825" gradientUnits="userSpaceOnUse">
<stop stop-color="#F3E89E"/>
<stop offset="1" stop-color="#B39972" stop-opacity="0.4"/>
</linearGradient>
<linearGradient id="paint9_linear_1755_1203" x1="83.0487" y1="38.7926" x2="83.0487" y2="51.0818" gradientUnits="userSpaceOnUse">
<stop stop-color="#F3E89E"/>
<stop offset="1" stop-color="#B39972" stop-opacity="0.4"/>
</linearGradient>
<linearGradient id="paint10_linear_1755_1203" x1="90.8098" y1="45.0821" x2="90.8098" y2="52.8696" gradientUnits="userSpaceOnUse">
<stop stop-color="#F3E89E"/>
<stop offset="1" stop-color="#B39972" stop-opacity="0.4"/>
</linearGradient>
<linearGradient id="paint11_linear_1755_1203" x1="83.9379" y1="30.3754" x2="83.9379" y2="41.5134" gradientUnits="userSpaceOnUse">
<stop stop-color="#F3E89E"/>
<stop offset="1" stop-color="#B39972" stop-opacity="0.4"/>
</linearGradient>
<linearGradient id="paint12_linear_1755_1203" x1="91.2446" y1="34.8206" x2="91.2446" y2="45.8181" gradientUnits="userSpaceOnUse">
<stop stop-color="#F3E89E"/>
<stop offset="1" stop-color="#B39972" stop-opacity="0.4"/>
</linearGradient>
<linearGradient id="paint13_linear_1755_1203" x1="80.1248" y1="21.4096" x2="80.1248" y2="30.4676" gradientUnits="userSpaceOnUse">
<stop stop-color="#F3E89E"/>
<stop offset="1" stop-color="#B39972" stop-opacity="0.4"/>
</linearGradient>
<linearGradient id="paint14_linear_1755_1203" x1="89.4439" y1="24.1423" x2="89.4439" y2="36.7719" gradientUnits="userSpaceOnUse">
<stop stop-color="#F3E89E"/>
<stop offset="1" stop-color="#B39972" stop-opacity="0.4"/>
</linearGradient>
<linearGradient id="paint15_linear_1755_1203" x1="78.1057" y1="12.1291" x2="78.1057" y2="22.1034" gradientUnits="userSpaceOnUse">
<stop stop-color="#F3E89E"/>
<stop offset="1" stop-color="#B39972" stop-opacity="0.4"/>
</linearGradient>
<linearGradient id="paint16_linear_1755_1203" x1="85.7178" y1="14.3161" x2="85.7178" y2="27.1679" gradientUnits="userSpaceOnUse">
<stop stop-color="#F3E89E"/>
<stop offset="1" stop-color="#B39972" stop-opacity="0.4"/>
</linearGradient>
<linearGradient id="paint17_linear_1755_1203" x1="41.757" y1="74.3642" x2="41.757" y2="79.6428" gradientUnits="userSpaceOnUse">
<stop stop-color="#F3E89E"/>
<stop offset="1" stop-color="#B39972" stop-opacity="0.4"/>
</linearGradient>
<linearGradient id="paint18_linear_1755_1203" x1="41.9567" y1="64.6508" x2="41.9567" y2="73.0299" gradientUnits="userSpaceOnUse">
<stop stop-color="#F3E89E"/>
<stop offset="1" stop-color="#B39972" stop-opacity="0.4"/>
</linearGradient>
<linearGradient id="paint19_linear_1755_1203" x1="33.002" y1="71.34" x2="33.002" y2="76.4436" gradientUnits="userSpaceOnUse">
<stop stop-color="#F3E89E"/>
<stop offset="1" stop-color="#B39972" stop-opacity="0.4"/>
</linearGradient>
<linearGradient id="paint20_linear_1755_1203" x1="33.4135" y1="58.2402" x2="33.4135" y2="70.4082" gradientUnits="userSpaceOnUse">
<stop stop-color="#F3E89E"/>
<stop offset="1" stop-color="#B39972" stop-opacity="0.4"/>
</linearGradient>
<linearGradient id="paint21_linear_1755_1203" x1="25.0881" y1="66.9433" x2="25.0881" y2="72.0416" gradientUnits="userSpaceOnUse">
<stop stop-color="#F3E89E"/>
<stop offset="1" stop-color="#B39972" stop-opacity="0.4"/>
</linearGradient>
<linearGradient id="paint22_linear_1755_1203" x1="26.8026" y1="53.1333" x2="26.8026" y2="65.9871" gradientUnits="userSpaceOnUse">
<stop stop-color="#F3E89E"/>
<stop offset="1" stop-color="#B39972" stop-opacity="0.4"/>
</linearGradient>
<linearGradient id="paint23_linear_1755_1203" x1="18.3367" y1="60.8601" x2="18.3367" y2="66.463" gradientUnits="userSpaceOnUse">
<stop stop-color="#F3E89E"/>
<stop offset="1" stop-color="#B39972" stop-opacity="0.4"/>
</linearGradient>
<linearGradient id="paint24_linear_1755_1203" x1="21.5567" y1="47.6649" x2="21.5567" y2="60.3051" gradientUnits="userSpaceOnUse">
<stop stop-color="#F3E89E"/>
<stop offset="1" stop-color="#B39972" stop-opacity="0.4"/>
</linearGradient>
<linearGradient id="paint25_linear_1755_1203" x1="13.1442" y1="53.2233" x2="13.1442" y2="59.9673" gradientUnits="userSpaceOnUse">
<stop stop-color="#F3E89E"/>
<stop offset="1" stop-color="#B39972" stop-opacity="0.4"/>
</linearGradient>
<linearGradient id="paint26_linear_1755_1203" x1="18.9513" y1="38.8773" x2="18.9513" y2="51.1666" gradientUnits="userSpaceOnUse">
<stop stop-color="#F3E89E"/>
<stop offset="1" stop-color="#B39972" stop-opacity="0.4"/>
</linearGradient>
<linearGradient id="paint27_linear_1755_1203" x1="11.1902" y1="45.1669" x2="11.1902" y2="52.9544" gradientUnits="userSpaceOnUse">
<stop stop-color="#F3E89E"/>
<stop offset="1" stop-color="#B39972" stop-opacity="0.4"/>
</linearGradient>
<linearGradient id="paint28_linear_1755_1203" x1="18.0621" y1="30.4601" x2="18.0621" y2="41.5981" gradientUnits="userSpaceOnUse">
<stop stop-color="#F3E89E"/>
<stop offset="1" stop-color="#B39972" stop-opacity="0.4"/>
</linearGradient>
<linearGradient id="paint29_linear_1755_1203" x1="10.7554" y1="34.9053" x2="10.7554" y2="45.9029" gradientUnits="userSpaceOnUse">
<stop stop-color="#F3E89E"/>
<stop offset="1" stop-color="#B39972" stop-opacity="0.4"/>
</linearGradient>
<linearGradient id="paint30_linear_1755_1203" x1="21.8752" y1="21.4944" x2="21.8752" y2="30.5524" gradientUnits="userSpaceOnUse">
<stop stop-color="#F3E89E"/>
<stop offset="1" stop-color="#B39972" stop-opacity="0.4"/>
</linearGradient>
<linearGradient id="paint31_linear_1755_1203" x1="12.5561" y1="24.2271" x2="12.5561" y2="36.8567" gradientUnits="userSpaceOnUse">
<stop stop-color="#F3E89E"/>
<stop offset="1" stop-color="#B39972" stop-opacity="0.4"/>
</linearGradient>
<linearGradient id="paint32_linear_1755_1203" x1="23.8943" y1="12.2139" x2="23.8943" y2="22.1882" gradientUnits="userSpaceOnUse">
<stop stop-color="#F3E89E"/>
<stop offset="1" stop-color="#B39972" stop-opacity="0.4"/>
</linearGradient>
<linearGradient id="paint33_linear_1755_1203" x1="16.2822" y1="14.4009" x2="16.2822" y2="27.2527" gradientUnits="userSpaceOnUse">
<stop stop-color="#F3E89E"/>
<stop offset="1" stop-color="#B39972" stop-opacity="0.4"/>
</linearGradient>
<linearGradient id="paint34_linear_1755_1203" x1="50.9835" y1="72.9495" x2="50.9835" y2="76.3498" gradientUnits="userSpaceOnUse">
<stop stop-color="#F3E89E"/>
<stop offset="1" stop-color="#B39972" stop-opacity="0.4"/>
</linearGradient>
<linearGradient id="paint35_linear_1755_1203" x1="51.0384" y1="10" x2="51.0384" y2="67.6599" gradientUnits="userSpaceOnUse">
<stop stop-color="#F3E89E"/>
<stop offset="1" stop-color="#B39972" stop-opacity="0.5"/>
</linearGradient>
<radialGradient id="paint36_radial_1755_1203" cx="0" cy="0" r="1" gradientUnits="userSpaceOnUse" gradientTransform="translate(6.27316e-07 87.9998) scale(100 10201)">
<stop stop-color="#B39972" stop-opacity="0.5"/>
<stop offset="1" stop-color="#F3E89E"/>
</radialGradient>
<radialGradient id="paint37_radial_1755_1203" cx="0" cy="0" r="1" gradientUnits="userSpaceOnUse" gradientTransform="translate(6.27316e-07 1.9998) scale(100 10201)">
<stop stop-color="#B39972" stop-opacity="0.5"/>
<stop offset="1" stop-color="#F3E89E"/>
</radialGradient>
<clipPath id="clip0_1755_1203">
<rect width="32.4142" height="57.66" fill="white" transform="translate(34.8313 10)"/>
</clipPath>
</defs>
</svg>
